<svg width="23" height="21" viewBox="0 0 23 21" fill="none" xmlns="http://www.w3.org/2000/svg">
<path d="M16.3516 0.4375C15.4419 0.438558 14.5422 0.625965 13.7077 0.988163C12.8733 1.35036 12.122 1.87967 11.5 2.54344C10.5885 1.57065 9.40566 0.894329 8.10496 0.602281C6.80426 0.310232 5.44581 0.415942 4.20595 0.905688C2.96608 1.39543 1.90208 2.24659 1.15206 3.34868C0.402047 4.45076 0.000656326 5.75286 0 7.08594C0 13.7056 10.677 20.2031 11.1406 20.4583C11.2524 20.5254 11.3804 20.5609 11.5108 20.5609C11.6412 20.5609 11.7691 20.5254 11.8809 20.4583C12.323 20.2031 23 13.7056 23 7.08594C22.9981 5.32325 22.297 3.6333 21.0506 2.38688C19.8042 1.14047 18.1143 0.439403 16.3516 0.4375ZM11.5 18.9956C9.64203 17.8097 1.4375 12.2681 1.4375 7.08594C1.43842 5.97904 1.79179 4.9012 2.44639 4.00861C3.10099 3.11602 4.02282 2.45506 5.07827 2.12153C6.13372 1.788 7.26795 1.79922 8.3166 2.15357C9.36524 2.50792 10.2738 3.18698 10.9106 4.09234C10.977 4.18652 11.065 4.26336 11.1672 4.31641C11.2695 4.36946 11.383 4.39715 11.4982 4.39715C11.6134 4.39715 11.7269 4.36946 11.8292 4.31641C11.9314 4.26336 12.0194 4.18652 12.0858 4.09234C12.7221 3.18542 13.6308 2.50489 14.6802 2.14955C15.7295 1.7942 16.8648 1.78254 17.9212 2.11625C18.9776 2.44996 19.9002 3.11167 20.555 4.00533C21.2097 4.89898 21.5627 5.97807 21.5625 7.08594C21.5625 12.2645 13.358 17.8061 11.5 18.9956Z" fill="#242424"/>
</svg>
