<svg width="18" height="20" viewBox="0 0 18 20" fill="none" xmlns="http://www.w3.org/2000/svg">
<path d="M17.7616 5.01513C16.6202 5.01513 15.5671 4.63701 14.7214 3.99912C13.7515 3.26787 13.0546 2.19521 12.8085 0.958886C12.7476 0.653418 12.7147 0.338183 12.7116 0.0151367H9.45107V8.92451L9.44716 13.8046C9.44716 15.1093 8.59755 16.2155 7.41982 16.6046C7.07802 16.7175 6.70888 16.771 6.32451 16.7499C5.83388 16.7229 5.37411 16.5749 4.9745 16.3358C4.12411 15.8272 3.54755 14.9046 3.53193 13.8491C3.50732 12.1995 4.84091 10.8546 6.48935 10.8546C6.81474 10.8546 7.12724 10.9077 7.41982 11.0042V8.56904V7.69365C7.11122 7.64795 6.79716 7.62412 6.47958 7.62412C4.67529 7.62412 2.98779 8.37412 1.78154 9.72529C0.869816 10.7464 0.322941 12.0491 0.238566 13.4151C0.128019 15.2097 0.78466 16.9155 2.0581 18.1741C2.24521 18.3589 2.44169 18.5304 2.64716 18.6886C3.73896 19.5288 5.07372 19.9843 6.47958 19.9843C6.79716 19.9843 7.11122 19.9608 7.41982 19.9151C8.7331 19.7206 9.94482 19.1194 10.9011 18.1741C12.0761 17.0128 12.7253 15.471 12.7323 13.83L12.7155 6.54248C13.2761 6.9749 13.889 7.33271 14.5468 7.61044C15.5698 8.04209 16.6546 8.26084 17.771 8.26044V5.89287V5.01435C17.7718 5.01513 17.7624 5.01513 17.7616 5.01513V5.01513Z" fill="white"/>
</svg>
