<svg width="26" height="18" viewBox="0 0 26 18" fill="none" xmlns="http://www.w3.org/2000/svg">
<path d="M24.6735 2.90778C24.3926 1.86354 23.5693 1.04038 22.5252 0.7592C20.6178 0.237305 12.988 0.237305 12.988 0.237305C12.988 0.237305 5.35845 0.237305 3.45103 0.739413C2.42702 1.0203 1.58363 1.86369 1.30274 2.90778C0.800781 4.81505 0.800781 8.77047 0.800781 8.77047C0.800781 8.77047 0.800781 12.7458 1.30274 14.6332C1.58392 15.6773 2.40694 16.5004 3.45117 16.7816C5.37853 17.3036 12.9883 17.3036 12.9883 17.3036C12.9883 17.3036 20.6178 17.3036 22.5252 16.8015C23.5695 16.5205 24.3926 15.6973 24.6738 14.6532C25.1756 12.7458 25.1756 8.79055 25.1756 8.79055C25.1756 8.79055 25.1957 4.81505 24.6735 2.90778V2.90778ZM10.5588 12.4246V5.11631L16.9034 8.77047L10.5588 12.4246Z" fill="white"/>
</svg>
